<svg width="90" height="90" fill="none" xmlns="http://www.w3.org/2000/svg"><path fill-rule="evenodd" clip-rule="evenodd" d="M.413.437C.028.844 0 1.06 0 3.612 0 6.23.02 6.368.44 6.76c.438.41.453.41 9.683.41h9.244v6.227h-.862c-.486 0-1.185.164-1.603.376-1.33.675-1.635 1.296-2.57 5.256-.468 1.984-.851 3.818-.851 4.075 0 .258.187.641.416.853.4.37.637.384 6.749.384h6.333l.466-.463c.257-.254.466-.583.466-.73 0-.148-.386-1.913-.86-3.924-.576-2.452-1.01-3.88-1.316-4.34-.555-.834-1.835-1.487-2.915-1.487h-.795V7.17h21.646v6.227h-.766c-1.477 0-2.739.782-3.288 2.04-.32.732-1.832 7.107-1.832 7.724 0 .198.198.545.44.77.432.405.53.41 6.802.41h6.362l.413-.436c.227-.24.413-.587.413-.77 0-.598-1.52-6.984-1.832-7.699-.55-1.257-1.81-2.039-3.288-2.039h-.766V7.17h21.646v6.227h-.795c-1.08 0-2.36.653-2.915 1.487-.307.46-.74 1.888-1.317 4.34-.473 2.01-.86 3.776-.86 3.923 0 .148.21.477.467.731l.466.463h6.333c6.112 0 6.349-.013 6.75-.384.228-.212.415-.594.415-.85 0-.255-.386-2.092-.858-4.082-.94-3.968-1.239-4.58-2.563-5.252-.418-.212-1.117-.376-1.603-.376h-.862V7.17h18.541l.413-.436c.385-.407.413-.624.413-3.175C90 .94 89.98.803 89.56.41L89.122 0H.826L.413.437zm86.929 3.148v.944H2.658V2.642h84.684v.943zM23.507 16.277c.151.181 1.366 4.931 1.366 5.342 0 .044-1.88.08-4.177.08-2.46 0-4.177-.072-4.177-.175 0-.524 1.143-4.98 1.337-5.211.308-.37 5.345-.402 5.65-.036zm24.313.012c.166.198 1.357 4.852 1.357 5.3 0 .06-1.88.11-4.177.11-2.297 0-4.177-.05-4.177-.11 0-.448 1.191-5.102 1.357-5.3.298-.357 5.342-.357 5.64 0zm24.324.024c.194.232 1.337 4.688 1.337 5.21 0 .104-1.717.177-4.177.177-2.298 0-4.177-.037-4.177-.08 0-.412 1.215-5.162 1.366-5.343.306-.366 5.343-.334 5.65.036zm-37.25 26.662c-.226.255-.315.995-.39 3.255-.08 2.427-.17 3.117-.528 4.057-.358.938-.45 1.648-.542 4.151l-.111 3.02-1.79.054c-.984.03-1.886.018-2.005-.028-.16-.06-.153-.778.028-2.79.372-4.127.566-3.935-4.002-3.935-4.388 0-4.21-.123-4.025 2.781.071 1.117.181 2.476.244 3.021l.115.99h-1.229c-.676 0-1.267-.037-1.313-.083-.046-.046.02-1.214.146-2.594.307-3.36.309-3.307-.125-3.738-.352-.35-.633-.377-3.863-.377-4.37 0-4.225-.093-4.047 2.593.066 1.013.177 2.372.245 3.02l.124 1.18H6.293c-5.28 0-5.551.017-5.913.377-.345.343-.38.629-.38 3.093 0 3.156.124 3.462 1.473 3.643l.805.107V88.62l.44.41.44.411h83.738l.413-.437.413-.437V64.772l.805-.108c1.349-.18 1.473-.486 1.473-3.642 0-2.464-.035-2.75-.38-3.093-.375-.373-.633-.377-23.515-.377H42.969l-.111-2.69c-.086-2.051-.211-2.979-.53-3.915-.336-.985-.44-1.845-.534-4.367-.155-4.172.07-3.935-3.724-3.935-2.51 0-2.922.043-3.177.33zm4.22 4.48c0 1.857.072 2.377.505 3.621.44 1.268.507 1.767.522 3.917l.017 2.464-2.04.054-2.042.053V54.95c0-2.302.057-2.776.473-3.962.345-.981.508-1.937.599-3.523l.125-2.177h1.84v2.168zm-22.312 7.69c-.18 2.511-.138 2.436-1.294 2.369l-.98-.057-.125-.943a42.61 42.61 0 01-.208-2.029l-.08-1.085h2.812l-.125 1.746zm10.075-.188c-.215 2.685-.168 2.595-1.334 2.595h-1.01l-.124-1.557c-.069-.856-.17-1.79-.225-2.076l-.1-.519h2.918l-.125 1.557zm60.465 6.18v.943H2.658v-1.887h84.684v.944zM85.063 75.76v11.038H73.19l-.962-5.766-.962-5.765.68-.283c.877-.363 1.703-1.138 2.034-1.907.161-.374.261-1.299.261-2.406 0-2.776.711-2.553-8.15-2.553h-7.392l-.393.497c-.32.404-.393.765-.392 1.934 0 .79.091 1.76.202 2.157.247.884 1.508 2.177 2.27 2.328.31.062.564.192.564.29 0 .198-1.653 10.14-1.821 10.955l-.108.52h-3.497c-1.924 0-3.498-.041-3.498-.09 0-.099-1.64-10.064-1.793-10.902-.084-.454-.01-.554.609-.81 1.682-.699 2.313-1.875 2.32-4.32.003-1.475-.048-1.74-.41-2.123l-.412-.436h-7.312c-8.82 0-8.194-.194-8.187 2.533.006 2.477.63 3.644 2.327 4.349.583.242.695.371.617.716-.093.413-1.81 10.85-1.81 11.004 0 .043-1.573.078-3.497.078H30.98l-.108-.519c-.168-.815-1.821-10.757-1.821-10.955 0-.098.253-.228.563-.29.764-.151 2.024-1.444 2.271-2.328.11-.396.202-1.367.202-2.157.001-1.17-.072-1.53-.392-1.934l-.393-.497H23.91c-8.861 0-8.15-.223-8.15 2.553 0 1.107.1 2.032.26 2.406.332.769 1.158 1.544 2.034 1.907l.68.283-.911 5.435c-.502 2.99-.915 5.584-.918 5.766-.006.307-.42.33-5.987.33H4.937V64.722h80.126v11.039zM29.43 71.284c0 .289-.133.713-.295.944-.293.415-.347.42-5.208.42-5.465 0-5.51-.01-5.51-1.24v-.648H29.43v.524zm21.076.075c0 .329-.141.753-.314.943-.289.317-.706.345-5.159.345-5.413 0-5.54-.029-5.54-1.256v-.63h11.013v.598zm21.076.048c0 1.23-.044 1.24-5.509 1.24-4.86 0-4.915-.004-5.208-.42a1.922 1.922 0 01-.295-.943v-.524h11.012v.647zm9.337.922c-.383.406-.413.626-.413 3.072 0 3.109.14 3.473 1.33 3.473 1.191 0 1.329-.362 1.329-3.5 0-2.537-.02-2.68-.44-3.071-.57-.532-1.287-.522-1.806.026zm-53.69 8.385c.495 2.984.941 5.573.993 5.755.088.308-.205.33-4.285.33-2.975 0-4.38-.064-4.38-.2 0-.239 1.666-10.268 1.808-10.886.095-.413.163-.424 2.532-.424h2.435l.898 5.425zm20.24-5.318c0 .149 1.69 10.25 1.821 10.884l.107.52h-8.794l.107-.52c.131-.635 1.822-10.735 1.822-10.884 0-.059 1.11-.107 2.468-.107 1.358 0 2.468.048 2.468.107zm21.168.317c.115.486 1.804 10.73 1.805 10.945 0 .078-1.97.141-4.379.141-4.08 0-4.373-.022-4.285-.33.052-.181.498-2.771.992-5.755l.898-5.425h2.435c2.368 0 2.437.011 2.534.424z" fill="#D5621D"/></svg>