<svg width="90" height="90" fill="none" xmlns="http://www.w3.org/2000/svg"><path fill-rule="evenodd" clip-rule="evenodd" d="M17.314 12.281c-1.446.786-2.143 2.073-1.96 3.621l.108.922-1.052.406c-1.36.526-2.95 1.7-3.865 2.855-1.25 1.575-1.84 2.969-2.126 5.024l-.179 1.28 1.163 2.488c.639 1.368 1.325 2.625 1.524 2.794.273.23.678.306 1.643.306h1.282l-.889 2.015-.888 2.016h-5.68c-5.615 0-5.682.004-6.037.383-.356.381-.358.495-.358 20.91v20.526l.407.382c.39.366.55.38 4.1.38 3.633 0 3.7-.006 4.076-.405.381-.405.382-.42.382-8.914v-8.51l.775-.087c.92-.103 2.11-.65 3.037-1.393 1.003-.806 1.963-1.186 3.005-1.19 1.143-.005 1.88.292 3.218 1.294 1.31.983 2.536 1.399 4.115 1.399 1.58 0 2.805-.416 4.116-1.4 1.324-.991 2.072-1.297 3.18-1.297 1.106 0 1.854.306 3.178 1.298 1.309.98 2.536 1.398 4.116 1.401 1.398.002 2.653-.383 3.706-1.138 1.624-1.166 2.24-1.455 3.25-1.528 1.302-.094 1.994.148 3.414 1.193 1.725 1.27 3.493 1.746 5.267 1.419 1.129-.208 2.608-.892 3.26-1.508 1.1-1.04 3.16-1.436 4.523-.868.354.147 1.059.587 1.565.976 2.171 1.67 4.772 1.946 7.154.76.5-.25 1.106-.64 1.347-.868 1.102-1.04 3.161-1.436 4.524-.868.354.147 1.058.587 1.564.976 1.018.782 2.422 1.384 3.23 1.384h.526v17.112l.407.382c.391.366.55.38 4.1.38 3.634 0 3.7-.006 4.076-.405l.382-.406V57.276c0-20.39-.002-20.504-.358-20.885-.355-.38-.422-.383-6.038-.383h-5.679l-.888-2.016-.889-2.015h1.282c.965 0 1.37-.076 1.643-.306.2-.17.882-1.418 1.516-2.776l1.154-2.47-.191-1.368c-.199-1.422-.633-2.717-1.264-3.77-1.096-1.825-3.087-3.517-4.894-4.157l-.856-.303.108-.923c.429-3.632-4.212-5.37-6.283-2.354-.357.52-.424.828-.424 1.961v1.345l-.799.283c-2.85 1.009-5.31 3.84-6.047 6.962-.438 1.851-.374 2.233.802 4.77 1.355 2.923 1.542 3.106 3.173 3.106 1.064 0 1.224.04 1.131.28-.06.155-.444 1.062-.853 2.016l-.746 1.734-6.486-.043-6.485-.044-.845-1.928-.845-1.927 1.09-.045c1.912-.079 1.783.036 3.127-2.778 1.353-2.834 1.452-3.4.939-5.374-.464-1.785-1.236-3.078-2.692-4.508-1.262-1.239-2.049-1.757-3.57-2.349-.641-.25-.646-.26-.468-.903.382-1.38-.447-3.07-1.834-3.74-2.8-1.351-5.733 1.229-4.827 4.248.024.081-.401.329-.945.55-3.48 1.41-6.13 5.14-6.13 8.625 0 .783.187 1.316 1.214 3.46 1.342 2.802 1.215 2.69 3.123 2.769l1.085.045-.843 1.927-.843 1.928-6.482.044-6.483.044-.745-1.735c-.41-.954-.795-1.861-.854-2.016-.093-.24.066-.28 1.122-.28.91 0 1.327-.08 1.606-.306.528-.43 2.651-5.002 2.648-5.7-.006-1.045-.505-2.935-1.088-4.12-.83-1.689-2.673-3.514-4.364-4.321-.716-.343-1.384-.623-1.484-.623-.108 0-.18-.549-.18-1.37 0-1.552-.34-2.258-1.456-3.02-.787-.537-2.508-.66-3.29-.236zm2.097 2.448c.327.326.364 1.144.066 1.442-.521.52-1.723.015-1.723-.723 0-.831 1.076-1.298 1.657-.719zm26.41.183c.27.411.274.506.04.92-.201.358-.394.462-.861.462-.467 0-.66-.104-.862-.462-.233-.414-.229-.509.042-.92.212-.323.454-.458.82-.458.366 0 .608.135.82.458zm26.104-.168c.668.603.22 1.637-.71 1.637-.61 0-.903-.291-.903-.899 0-.912.942-1.344 1.613-.738zm-51.157 4.343c1.526.323 2.463.815 3.61 1.896.978.922 2.165 2.976 2.165 3.745v.415H10.87l.122-.57c.203-.949.926-2.32 1.664-3.155 1.879-2.129 4.926-3.004 8.111-2.33zm26.009-.073c1.42.268 3.038 1.1 3.992 2.05.846.843 1.899 2.715 2 3.553l.053.438H37.178l.053-.438c.029-.24.3-.948.6-1.571 1.514-3.128 5.123-4.755 8.946-4.032zm26.272.012c2.862.526 5.388 2.877 5.959 5.547l.121.57H63.457v-.415c0-.228.276-.965.614-1.638.683-1.36 2.023-2.753 3.246-3.376 1.528-.777 3.778-1.047 5.732-.688zm-47.21 8.74c0 .095-.173.528-.386.965l-.386.793h-12.58l-.443-.87c-.243-.48-.442-.913-.442-.964 0-.052 3.203-.094 7.119-.094 4.498 0 7.119.063 7.119.17zm25.94.75l-.406.92H38.627l-.407-.92-.407-.92h14.374l-.407.92zm26.62-.826c0 .051-.2.485-.443.963l-.442.87h-12.58l-.387-.792c-.213-.437-.387-.87-.387-.964 0-.108 2.62-.17 7.12-.17 3.915 0 7.118.041 7.118.093zm-56.602 6.156c.435 1.027.817 1.933.85 2.014.032.081-1.725.148-3.905.148h-3.963l.623-1.446c.342-.795.73-1.702.863-2.015l.24-.57 2.25.002 2.25.002.792 1.865zm26.25.015c.453 1.036.823 1.943.822 2.015 0 .072-1.742.132-3.869.132-2.127 0-3.868-.06-3.869-.132-.001-.072.369-.98.822-2.015l.824-1.884h4.446l.824 1.884zm26.309.131l.825 1.928-3.866.047c-2.127.026-3.896.018-3.933-.018-.036-.037.312-.945.773-2.02l.84-1.953 2.267.045 2.269.044.825 1.927zM7.03 45.417v6.956l.473.491c.648.675 1.237.629 2.52-.198 1.844-1.189 3.05-1.5 5.796-1.5 2.747 0 3.952.311 5.796 1.5.59.38 1.265.69 1.502.69.236 0 .847-.262 1.356-.582 1.876-1.18 3.66-1.687 5.936-1.69 2.317-.002 4.59.688 6.326 1.92.698.495 1.261.44 2.328-.23 1.876-1.18 3.66-1.687 5.936-1.69 2.317-.002 4.59.688 6.325 1.92.7.495 1.262.44 2.329-.23 1.875-1.18 3.66-1.687 5.936-1.69 2.317-.002 4.59.688 6.325 1.92.7.495 1.262.44 2.329-.23 1.875-1.18 3.659-1.687 5.936-1.69 2.317-.002 4.59.688 6.325 1.92.708.502 1.422.452 1.991-.14l.473-.491V38.46h4.57v8.592c0 8.03-.02 8.598-.308 8.685-.726.22-2.286 1.022-2.855 1.468-1.921 1.504-3.764 1.553-5.627.147-1.627-1.228-2.545-1.6-4.158-1.685-1.807-.096-3.055.267-4.459 1.297-2.688 1.973-3.803 1.93-6.939-.263-2.204-1.542-5.43-1.416-7.71.3-2.564 1.93-3.767 1.877-6.88-.3-.998-.698-2.25-1.068-3.614-1.068-1.49 0-2.637.368-3.86 1.238-1.693 1.205-2.272 1.45-3.424 1.45-1.125 0-2.044-.36-3.028-1.185-.29-.243-.953-.66-1.474-.929-.859-.441-1.12-.486-2.793-.486-1.674 0-1.934.045-2.793.486-.521.268-1.184.686-1.474.929-1.913 1.604-4.143 1.604-6.056 0-.29-.243-.952-.66-1.474-.929-.859-.441-1.119-.486-2.793-.486-2.074 0-2.705.225-4.569 1.631-1.863 1.406-3.706 1.357-5.627-.147-.57-.446-2.129-1.247-2.855-1.468-.288-.087-.308-.655-.308-8.685V38.46h4.57v6.956zm73.477-1.155c0 5.458-.018 5.794-.308 5.672-.169-.072-.98-.375-1.802-.674-1.432-.52-1.607-.543-4.218-.541-2.525.002-2.828.038-4.131.49-.774.269-1.803.71-2.288.982l-.881.492-.864-.493c-.475-.271-1.542-.715-2.37-.985-1.371-.449-1.737-.493-4.056-.493-2.32 0-2.685.044-4.056.492-.828.271-1.895.715-2.37.986l-.864.494-.882-.493c-.484-.271-1.514-.713-2.287-.982-1.305-.453-1.603-.488-4.131-.488-2.528 0-2.826.035-4.13.488-.774.269-1.804.71-2.288.982l-.882.492-.864-.493c-.475-.271-1.542-.715-2.37-.985-1.371-.449-1.737-.493-4.056-.493s-2.685.044-4.055.492c-.83.271-1.882.707-2.34.969l-.835.476-1.35-.664c-2.17-1.066-3.89-1.415-6.522-1.323-2.13.075-3.563.404-5.508 1.266-.29.128-.308-.205-.308-5.666v-5.801h71.016v5.801zM3.128 58.508c.262.135.777.486 1.146.779a9.351 9.351 0 001.45.908l.78.377v15.564H2.46V67.2c0-4.915.043-8.937.097-8.937.053 0 .31.11.57.246zM87.54 67.2v8.937h-4.044V60.572l.803-.388c.442-.213 1.015-.565 1.275-.781.55-.46 1.642-1.14 1.833-1.14.073 0 .132 4.021.132 8.936z" fill="#D5621D"/></svg>